# xmcd
#
# Track frame offsets:
#	150
#	17954
#	37840
#	56754
#	69296
#	89051
#	107519
#	130534
#	150781
#	171509
#	182186
#	197237
#	212992
#	224602
#	246370
#	262996
#	278967
#	296945
#	319995
#	333215
#
# Disc length: 4619 seconds
# Revision: 0
# Processed by: cddbd v1.5.2PL0 Copyright (c) Steve Scherf et al.
# Submitted via: dBpowerAMP V12.0
#
DISCID=36120914
DTITLE=Anthony Bertorelli - When Love Came Down
DYEAR=2007
DGENRE=Christmas
TTITLE0=When Love Came Down
TTITLE1=God Rest ye Merry, Gentlemen
TTITLE2=In The Bleak Midwinter
TTITLE3=It's The Most Wonderful Time of The Year
TTITLE4=After December Slips Away
TTITLE5=The Bells of Christmas
TTITLE6=Every Year, Every Christmas
TTITLE7=The Prayer
TTITLE8=Do You Hear What I Hear?
TTITLE9=Bring a Torch, Jeanette, Isabella
TTITLE10=Christmas Day
TTITLE11=Joy to The World
TTITLE12=Christmas Present
TTITLE13=Thankful
TTITLE14=A Christmas Love Song
TTITLE15=I Heard The Bells on Christmas Day
TTITLE16=O Holy Night
TTITLE17=Angels in The Snow
TTITLE18=Baby, It's Cold Outside
TTITLE19=Welcome to Our World
EXTD=
EXTT0=
EXTT1=
EXTT2=
EXTT3=
EXTT4=
EXTT5=
EXTT6=
EXTT7=
EXTT8=
EXTT9=
EXTT10=
EXTT11=
EXTT12=
EXTT13=
EXTT14=
EXTT15=
EXTT16=
EXTT17=
EXTT18=
EXTT19=
PLAYORDER=
